<?xml version="1.0" ?><!DOCTYPE svg  PUBLIC '-//W3C//DTD SVG 1.1//EN'  'http://www.w3.org/Graphics/SVG/1.1/DTD/svg11.dtd'><svg height="100%" style="fill-rule:evenodd;clip-rule:evenodd;stroke-linejoin:round;stroke-miterlimit:2;" version="1.1" viewBox="0 0 64 64" width="100%" xml:space="preserve" xmlns="http://www.w3.org/2000/svg" xmlns:serif="http://www.serif.com/" xmlns:xlink="http://www.w3.org/1999/xlink"><g transform="matrix(1,0,0,1,-430,0)"><g id="truck-box" transform="matrix(1,0,0,1,96.8303,0)"><rect height="64" style="fill:none;" width="64" x="333.17" y="0"/><g transform="matrix(1,0,0,1,205.17,-64)"><path d="M142.342,112L136,112C135.47,112 134.961,111.789 134.586,111.414C134.211,111.039 134,110.53 134,110C134,104.254 134,87.745 134,82C134,81.47 134.211,80.961 134.586,80.586C134.961,80.211 135.47,80 136,80C142.028,80 159.972,80 166,80C167.105,80 168,80.895 168,82L168,86L176.301,86C178.058,86 179.685,86.922 180.589,88.428C182.253,91.201 184.857,95.54 185.715,96.971C185.901,97.282 186,97.638 186,98C186,99.959 186,106.621 186,110C186,110.53 185.789,111.039 185.414,111.414C185.039,111.789 184.53,112 184,112L177.658,112C176.834,114.329 174.61,116 172,116C169.39,116 167.166,114.329 166.342,112L153.658,112C152.834,114.329 150.61,116 148,116C145.39,116 143.166,114.329 142.342,112ZM148,108C149.104,108 150,108.896 150,110C150,111.104 149.104,112 148,112C146.896,112 146,111.104 146,110C146,108.896 146.896,108 148,108ZM172,108C173.104,108 174,108.896 174,110C174,111.104 173.104,112 172,112C170.896,112 170,111.104 170,110C170,108.896 170.896,108 172,108ZM164,84L138,84L138,108L142.342,108C143.166,105.671 145.39,104 148,104C150.61,104 152.834,105.671 153.658,108L166.342,108C167.166,105.671 169.39,104 172,104C174.61,104 176.834,105.671 177.658,108L182,108L182,100L174,100C172.895,100 172,99.105 172,98C172,96.895 172.895,96 174,96L180.468,96L177.45,90.971C177.089,90.369 176.438,90 175.735,90L168,90L168,98C168,99.105 167.105,100 166,100C164.895,100 164,99.105 164,98L164,84Z"/></g></g></g></svg>